<mxfile host="app.diagrams.net" modified="2024-04-04T04:51:49.017Z" agent="Mozilla/5.0 (Windows NT 10.0; Win64; x64) AppleWebKit/537.36 (KHTML, like Gecko) Chrome/123.0.0.0 Safari/537.36" etag="HPmmq0Wlqp9qmbaXjdAQ" version="24.2.2" type="device">
  <diagram name="Страница — 1" id="8sw8Q8wA_aRkGMT_5pl4">
    <mxGraphModel dx="1434" dy="746" grid="1" gridSize="10" guides="1" tooltips="1" connect="1" arrows="1" fold="1" page="1" pageScale="1" pageWidth="827" pageHeight="1169" math="0" shadow="0">
      <root>
        <mxCell id="0" />
        <mxCell id="1" parent="0" />
        <mxCell id="xpm1QfirvkKsM0EJR97S-1" value="" style="whiteSpace=wrap;html=1;aspect=fixed;" vertex="1" parent="1">
          <mxGeometry x="120" y="90" width="600" height="600" as="geometry" />
        </mxCell>
        <mxCell id="xpm1QfirvkKsM0EJR97S-2" value="" style="rounded=0;whiteSpace=wrap;html=1;" vertex="1" parent="1">
          <mxGeometry x="120" y="90" width="300" height="60" as="geometry" />
        </mxCell>
        <mxCell id="xpm1QfirvkKsM0EJR97S-3" value="" style="rounded=0;whiteSpace=wrap;html=1;" vertex="1" parent="1">
          <mxGeometry x="420" y="90" width="300" height="60" as="geometry" />
        </mxCell>
        <mxCell id="xpm1QfirvkKsM0EJR97S-4" value="" style="rounded=0;whiteSpace=wrap;html=1;" vertex="1" parent="1">
          <mxGeometry x="120" y="150" width="300" height="210" as="geometry" />
        </mxCell>
        <mxCell id="xpm1QfirvkKsM0EJR97S-5" value="" style="rounded=0;whiteSpace=wrap;html=1;" vertex="1" parent="1">
          <mxGeometry x="420" y="150" width="300" height="210" as="geometry" />
        </mxCell>
        <mxCell id="xpm1QfirvkKsM0EJR97S-6" value="" style="rounded=0;whiteSpace=wrap;html=1;" vertex="1" parent="1">
          <mxGeometry x="120" y="360" width="300" height="60" as="geometry" />
        </mxCell>
        <mxCell id="xpm1QfirvkKsM0EJR97S-7" value="" style="rounded=0;whiteSpace=wrap;html=1;" vertex="1" parent="1">
          <mxGeometry x="420" y="360" width="300" height="60" as="geometry" />
        </mxCell>
        <mxCell id="xpm1QfirvkKsM0EJR97S-8" value="" style="rounded=0;whiteSpace=wrap;html=1;" vertex="1" parent="1">
          <mxGeometry x="120" y="420" width="300" height="270" as="geometry" />
        </mxCell>
        <mxCell id="xpm1QfirvkKsM0EJR97S-9" value="Сильные стороны" style="text;html=1;align=center;verticalAlign=middle;whiteSpace=wrap;rounded=0;" vertex="1" parent="1">
          <mxGeometry x="180" y="105" width="180" height="30" as="geometry" />
        </mxCell>
        <mxCell id="xpm1QfirvkKsM0EJR97S-10" value="Слабые стороны" style="text;html=1;align=center;verticalAlign=middle;whiteSpace=wrap;rounded=0;" vertex="1" parent="1">
          <mxGeometry x="460" y="105" width="180" height="30" as="geometry" />
        </mxCell>
        <mxCell id="xpm1QfirvkKsM0EJR97S-11" value="Возможности" style="text;html=1;align=center;verticalAlign=middle;whiteSpace=wrap;rounded=0;" vertex="1" parent="1">
          <mxGeometry x="160" y="375" width="180" height="30" as="geometry" />
        </mxCell>
        <mxCell id="xpm1QfirvkKsM0EJR97S-12" value="Угрозы" style="text;html=1;align=center;verticalAlign=middle;whiteSpace=wrap;rounded=0;" vertex="1" parent="1">
          <mxGeometry x="470" y="375" width="180" height="30" as="geometry" />
        </mxCell>
        <mxCell id="xpm1QfirvkKsM0EJR97S-18" value="Удаленное взаимодействие" style="text;strokeColor=none;fillColor=none;align=left;verticalAlign=middle;spacingLeft=4;spacingRight=4;overflow=hidden;points=[[0,0.5],[1,0.5]];portConstraint=eastwest;rotatable=0;whiteSpace=wrap;html=1;" vertex="1" parent="1">
          <mxGeometry x="150" y="170" width="270" height="30" as="geometry" />
        </mxCell>
        <mxCell id="xpm1QfirvkKsM0EJR97S-19" value="экономия пространства на жестком диске" style="text;strokeColor=none;fillColor=none;align=left;verticalAlign=middle;spacingLeft=4;spacingRight=4;overflow=hidden;points=[[0,0.5],[1,0.5]];portConstraint=eastwest;rotatable=0;whiteSpace=wrap;html=1;" vertex="1" parent="1">
          <mxGeometry x="150" y="200" width="270" height="30" as="geometry" />
        </mxCell>
        <mxCell id="xpm1QfirvkKsM0EJR97S-20" value="высокая производительность" style="text;strokeColor=none;fillColor=none;align=left;verticalAlign=middle;spacingLeft=4;spacingRight=4;overflow=hidden;points=[[0,0.5],[1,0.5]];portConstraint=eastwest;rotatable=0;whiteSpace=wrap;html=1;" vertex="1" parent="1">
          <mxGeometry x="150" y="230" width="270" height="30" as="geometry" />
        </mxCell>
        <mxCell id="xpm1QfirvkKsM0EJR97S-21" value="масштабируемость" style="text;strokeColor=none;fillColor=none;align=left;verticalAlign=middle;spacingLeft=4;spacingRight=4;overflow=hidden;points=[[0,0.5],[1,0.5]];portConstraint=eastwest;rotatable=0;whiteSpace=wrap;html=1;" vertex="1" parent="1">
          <mxGeometry x="150" y="260" width="270" height="30" as="geometry" />
        </mxCell>
        <mxCell id="xpm1QfirvkKsM0EJR97S-22" value="возможные уязвимости для DDos атак" style="text;strokeColor=none;fillColor=none;align=left;verticalAlign=middle;spacingLeft=4;spacingRight=4;overflow=hidden;points=[[0,0.5],[1,0.5]];portConstraint=eastwest;rotatable=0;whiteSpace=wrap;html=1;" vertex="1" parent="1">
          <mxGeometry x="435" y="450" width="270" height="30" as="geometry" />
        </mxCell>
        <mxCell id="xpm1QfirvkKsM0EJR97S-25" value="при низкой скорости интернета возможны задержки при обмене данными" style="text;strokeColor=none;fillColor=none;align=left;verticalAlign=middle;spacingLeft=4;spacingRight=4;overflow=hidden;points=[[0,0.5],[1,0.5]];portConstraint=eastwest;rotatable=0;whiteSpace=wrap;html=1;" vertex="1" parent="1">
          <mxGeometry x="435" y="170" width="270" height="30" as="geometry" />
        </mxCell>
        <mxCell id="xpm1QfirvkKsM0EJR97S-26" value="Оптимизировать проект под слабые компьютеры" style="text;strokeColor=none;fillColor=none;align=left;verticalAlign=middle;spacingLeft=4;spacingRight=4;overflow=hidden;points=[[0,0.5],[1,0.5]];portConstraint=eastwest;rotatable=0;whiteSpace=wrap;html=1;" vertex="1" parent="1">
          <mxGeometry x="135" y="450" width="270" height="30" as="geometry" />
        </mxCell>
        <mxCell id="xpm1QfirvkKsM0EJR97S-27" value="Оптимизировать проект под слабое интернет&amp;nbsp; подключение" style="text;strokeColor=none;fillColor=none;align=left;verticalAlign=middle;spacingLeft=4;spacingRight=4;overflow=hidden;points=[[0,0.5],[1,0.5]];portConstraint=eastwest;rotatable=0;whiteSpace=wrap;html=1;" vertex="1" parent="1">
          <mxGeometry x="135" y="500" width="270" height="30" as="geometry" />
        </mxCell>
        <mxCell id="xpm1QfirvkKsM0EJR97S-28" value="Свести к минимуму затраты памяти и простои потоков" style="text;strokeColor=none;fillColor=none;align=left;verticalAlign=middle;spacingLeft=4;spacingRight=4;overflow=hidden;points=[[0,0.5],[1,0.5]];portConstraint=eastwest;rotatable=0;whiteSpace=wrap;html=1;" vertex="1" parent="1">
          <mxGeometry x="135" y="550" width="270" height="30" as="geometry" />
        </mxCell>
      </root>
    </mxGraphModel>
  </diagram>
</mxfile>
